# Blender v2.79 (sub 0) OBJ File: ''
# www.blender.org
mtllib base.mtl
o Cube
v 1.000000 -0.115968 -1.000000
v 1.000000 -0.115968 1.000000
v -1.000000 -0.115968 1.000000
v -1.000000 -0.115968 -1.000000
v 0.843687 0.049348 -0.843686
v 0.843686 0.049348 0.843687
v -0.843687 0.049348 0.843686
v -0.843686 0.049348 -0.843686
v 0.713708 0.307634 -0.713707
v 0.713707 0.307634 0.713708
v -0.713708 0.307634 -0.713708
v -0.713708 0.307634 0.713707
v 0.830775 2.145489 -0.830774
v 0.830774 2.145489 0.830775
v -0.830774 2.145489 -0.830774
v -0.830775 2.145489 0.830774
v 1.387980 2.424916 -1.387979
v 1.387979 2.424916 1.387981
v -1.387980 2.424916 -1.387980
v -1.387980 2.424916 1.387979
v 1.387980 2.571154 -1.387979
v 1.387979 2.571154 1.387981
v -1.387980 2.571154 -1.387980
v -1.387980 2.571154 1.387979
v 1.000000 -0.115968 -0.079776
v -1.000000 -0.115968 -0.079776
v 0.843686 0.049348 -0.067305
v -0.843686 0.049348 -0.067306
v 0.713707 0.307634 -0.056936
v -0.713708 0.307634 -0.056937
v 0.830774 2.145489 -0.066275
v -0.830775 2.145489 -0.066276
v 1.387980 2.424916 -0.110726
v -1.387980 2.424916 -0.110727
v 1.387980 2.571154 -0.110726
v -1.387980 2.571154 -0.110727
v -0.773890 1.252443 0.773889
v -0.773890 1.252443 -0.773890
v 0.773890 1.252443 -0.773889
v 0.773889 1.252443 0.773890
v 0.773889 1.252443 -0.061737
v -0.773890 1.252443 -0.061738
v -0.797676 1.625863 0.797675
v 0.797675 1.625863 0.797676
v 0.797675 1.625863 -0.063635
v -0.797676 1.625863 -0.063635
v -0.797675 1.625863 -0.797675
v 0.797676 1.625863 -0.797675
v -0.744677 0.793825 -0.744677
v 0.744677 0.793825 -0.744676
v -0.744677 0.793825 0.744676
v 0.744676 0.793825 0.744677
v 0.744677 0.793825 -0.059407
v -0.744677 0.793825 -0.059407
v -1.000000 -0.115968 -0.540066
v -0.843686 0.049348 -0.455646
v -0.713708 0.307634 -0.385449
v -0.830774 2.145489 -0.448673
v -1.387980 2.424916 -0.749601
v -1.387980 2.571154 -0.749601
v 1.000000 -0.115968 -0.540066
v 0.843686 0.049348 -0.455646
v 0.713708 0.307634 -0.385449
v 0.830775 2.145489 -0.448673
v 1.387980 2.424916 -0.749600
v 1.387980 2.571154 -0.749600
v -0.773890 1.252443 -0.417952
v 0.773890 1.252443 -0.417951
v -0.797676 1.625863 -0.430798
v 0.797676 1.625863 -0.430797
v 0.744677 0.793825 -0.402174
v -0.744677 0.793825 -0.402175
v 1.000000 -0.115968 0.460112
v 0.843686 0.049348 0.388191
v 0.713707 0.307634 0.328386
v 0.830774 2.145489 0.382250
v 1.387979 2.424916 0.638627
v 1.387979 2.571154 0.638627
v -1.000000 -0.115968 0.460112
v -0.843686 0.049348 0.388190
v -0.713708 0.307634 0.328385
v -0.830775 2.145489 0.382249
v -1.387980 2.424916 0.638626
v -1.387980 2.571154 0.638626
v 0.773889 1.252443 0.356077
v -0.773890 1.252443 0.356076
v 0.797675 1.625863 0.367021
v -0.797676 1.625863 0.367020
v -0.744677 0.793825 0.342635
v 0.744676 0.793825 0.342635
v -1.000000 -0.115968 0.183592
v -0.843686 0.049348 0.154894
v -0.713708 0.307634 0.131031
v -0.830775 2.145489 0.152524
v -1.387980 2.424916 0.254822
v -1.387980 2.571154 0.254822
v -0.773890 1.252443 0.142080
v -0.797676 1.625863 0.146447
v -0.744677 0.793825 0.136717
v 1.000000 -0.115968 0.183592
v 0.843686 0.049348 0.154895
v 0.713707 0.307634 0.131032
v 0.830774 2.145489 0.152524
v 1.387979 2.424916 0.254823
v 1.387979 2.571154 0.254823
v 0.773889 1.252443 0.142081
v 0.797675 1.625863 0.146448
v 0.744677 0.793825 0.136718
v 1.000000 -0.115968 -0.329100
v 0.843686 0.049348 -0.277656
v 0.713708 0.307634 -0.234880
v 0.830774 2.145489 -0.273407
v 1.387980 2.424916 -0.456783
v 1.387980 2.571154 -0.456783
v 0.773890 1.252443 -0.254686
v 0.797675 1.625863 -0.262514
v 0.744677 0.793825 -0.245072
v -1.000000 -0.115968 -0.329100
v -0.843686 0.049348 -0.277657
v -0.713708 0.307634 -0.234881
v -0.830774 2.145489 -0.273408
v -1.387980 2.424916 -0.456784
v -1.387980 2.571154 -0.456784
v -0.773890 1.252443 -0.254687
v -0.797676 1.625863 -0.262515
v -0.744677 0.793825 -0.245073
v 0.000000 -0.115968 -1.000000
v 0.000000 -0.115968 1.000000
v 0.000000 0.049348 -0.843686
v -0.000000 0.049348 0.843686
v 0.000000 0.307634 -0.713707
v -0.000000 0.307634 0.713708
v 0.000000 2.145489 -0.830774
v -0.000000 2.145489 0.830775
v 0.000000 2.424916 -1.387979
v -0.000001 2.424916 1.387980
v 0.000000 2.571154 -1.387979
v -0.000001 2.571154 1.387980
v -0.000000 2.571154 -0.110727
v 0.000000 -0.115968 -0.079776
v -0.000000 1.252443 0.773890
v -0.000000 1.625863 0.797676
v 0.000000 1.625863 -0.797675
v 0.000000 0.793825 -0.744676
v -0.000000 0.793825 0.744677
v 0.000000 -0.115968 -0.540066
v 0.000000 2.571154 -0.749601
v -0.000000 2.571154 0.638626
v 0.000000 -0.115968 0.460112
v 0.000000 -0.115968 0.183592
v -0.000000 2.571154 0.254823
v 0.000000 -0.115968 -0.329100
v 0.000000 2.571154 -0.456783
v -0.500000 -0.115968 -1.000000
v -0.500000 -0.115968 1.000000
v -0.421843 0.049348 -0.843686
v -0.421843 0.049348 0.843686
v -0.356854 0.307634 -0.713707
v -0.356854 0.307634 0.713707
v -0.415387 2.145489 -0.830774
v -0.415388 2.145489 0.830774
v -0.693990 2.424916 -1.387980
v -0.693990 2.424916 1.387979
v -0.693990 2.571154 -1.387980
v -0.693990 2.571154 1.387979
v -0.500000 -0.115968 -0.079776
v -0.386945 1.252443 0.773889
v -0.398838 1.625863 0.797675
v -0.372339 0.793825 0.744677
v -0.500000 -0.115968 -0.540066
v -0.500000 -0.115968 0.460112
v -0.500000 -0.115968 0.183592
v -0.500000 -0.115968 -0.329100
v -0.693990 2.571154 -0.110727
v -0.386945 1.252443 -0.773889
v -0.398838 1.625863 -0.797675
v -0.372338 0.793825 -0.744677
v -0.693990 2.571154 -0.749601
v -0.693990 2.571154 0.638626
v -0.693990 2.571154 0.254822
v -0.693990 2.571154 -0.456784
v 0.668979 2.571154 -0.110727
v 0.373000 1.252443 -0.773889
v 0.384464 1.625863 -0.797675
v 0.358920 0.793825 -0.744676
v 0.668979 2.571154 -0.749600
v 0.668979 2.571154 0.638627
v 0.668979 2.571154 0.254823
v 0.668979 2.571154 -0.456783
v 0.481981 -0.115968 -1.000000
v 0.481980 -0.115968 1.000000
v 0.406641 0.049348 -0.843686
v 0.406640 0.049348 0.843687
v 0.343993 0.307634 -0.713707
v 0.343993 0.307634 0.713708
v 0.400417 2.145489 -0.830774
v 0.400417 2.145489 0.830775
v 0.668980 2.424916 -1.387979
v 0.668978 2.424916 1.387980
v 0.668980 2.571154 -1.387979
v 0.668978 2.571154 1.387980
v 0.481980 -0.115968 -0.079776
v 0.372999 1.252443 0.773890
v 0.384463 1.625863 0.797676
v 0.358919 0.793825 0.744677
v 0.481981 -0.115968 -0.540066
v 0.481980 -0.115968 0.460112
v 0.481980 -0.115968 0.183592
v 0.481981 -0.115968 -0.329100
v -0.975864 1.230576 -1.806791
v 0.007144 1.230576 -1.806790
v -1.006077 2.179223 -1.867217
v 0.007144 2.179223 -1.867217
v -0.938757 0.065485 -1.732577
v 0.007144 0.065485 -1.732577
v 0.954726 1.230576 -1.806790
v 0.983850 2.179223 -1.867217
v 0.918957 0.065485 -1.732577
vn 0.0000 -1.0000 -0.0000
vn 0.8933 0.4495 0.0000
vn 0.7266 0.6870 0.0000
vn -0.0000 0.6870 0.7266
vn -0.7266 0.6870 -0.0000
vn 0.0000 0.6870 -0.7266
vn -0.9980 -0.0636 -0.0000
vn -0.8933 0.4495 -0.0000
vn 0.0000 0.4495 -0.8933
vn -0.0000 0.4495 0.8933
vn -0.0000 -0.8939 0.4483
vn 0.0000 -0.0636 -0.9980
vn -0.0000 -0.0636 0.9980
vn 0.9980 -0.0636 0.0000
vn -0.0000 0.0000 1.0000
vn 0.4483 -0.8939 0.0000
vn -0.4483 -0.8939 -0.0000
vn 0.0000 -0.8939 -0.4483
vn 0.0000 1.0000 0.0000
vn 1.0000 0.0000 0.0000
vn -1.0000 0.0000 -0.0000
vn 0.0000 0.0000 -1.0000
vn -0.0000 -0.8049 0.5934
vn 0.8713 0.0045 0.4906
vn -0.8687 0.0039 0.4952
vn -0.0000 0.8882 0.4595
usemtl Material
s off
f 171//1 155//1 3//1 79//1
f 62//2 5//2 9//2 63//2
f 73//3 74//3 6//3 2//3
f 155//4 157//4 7//4 3//4
f 55//5 56//5 8//5 4//5
f 156//6 154//6 4//6 8//6
f 88//7 43//7 16//7 82//7
f 80//8 7//8 12//8 81//8
f 156//9 8//9 11//9 158//9
f 193//10 6//10 10//10 195//10
f 197//11 14//11 18//11 199//11
f 176//12 47//12 15//12 160//12
f 204//13 44//13 14//13 197//13
f 70//14 48//14 13//14 64//14
f 199//15 18//15 22//15 201//15
f 64//16 13//16 17//16 65//16
f 82//17 16//17 20//17 83//17
f 160//18 15//18 19//18 162//18
f 179//19 84//19 24//19 165//19
f 65//20 17//20 21//20 66//20
f 83//21 20//21 24//21 84//21
f 162//22 19//22 23//22 164//22
f 122//21 34//21 36//21 123//21
f 104//20 33//20 35//20 105//20
f 181//19 123//19 36//19 174//19
f 121//17 32//17 34//17 122//17
f 103//16 31//16 33//16 104//16
f 107//14 45//14 31//14 103//14
f 119//8 28//8 30//8 120//8
f 125//7 46//7 32//7 121//7
f 91//5 92//5 28//5 26//5
f 109//3 110//3 27//3 25//3
f 101//2 27//2 29//2 102//2
f 173//1 166//1 26//1 118//1
f 126//7 54//7 42//7 124//7
f 108//14 53//14 41//14 106//14
f 71//14 50//14 39//14 68//14
f 205//13 52//13 40//13 203//13
f 177//12 49//12 38//12 175//12
f 89//7 51//7 37//7 86//7
f 124//7 42//7 46//7 125//7
f 106//14 41//14 45//14 107//14
f 68//14 39//14 48//14 70//14
f 203//13 40//13 44//13 204//13
f 175//12 38//12 47//12 176//12
f 86//7 37//7 43//7 88//7
f 81//7 12//7 51//7 89//7
f 158//12 11//12 49//12 177//12
f 195//13 10//13 52//13 205//13
f 63//14 9//14 50//14 71//14
f 102//14 29//14 53//14 108//14
f 120//7 30//7 54//7 126//7
f 11//7 57//7 72//7 49//7
f 111//14 63//14 71//14 117//14
f 115//14 68//14 70//14 116//14
f 38//7 67//7 69//7 47//7
f 117//14 71//14 68//14 115//14
f 49//7 72//7 67//7 38//7
f 154//1 170//1 55//1 4//1
f 1//3 5//3 62//3 61//3
f 47//7 69//7 58//7 15//7
f 8//8 56//8 57//8 11//8
f 15//17 58//17 59//17 19//17
f 164//19 23//19 60//19 178//19
f 19//21 59//21 60//21 23//21
f 113//20 65//20 66//20 114//20
f 112//16 64//16 65//16 113//16
f 116//14 70//14 64//14 112//14
f 118//5 119//5 56//5 55//5
f 110//2 62//2 63//2 111//2
f 10//14 75//14 90//14 52//14
f 93//7 81//7 89//7 99//7
f 97//7 86//7 88//7 98//7
f 40//14 85//14 87//14 44//14
f 99//7 89//7 86//7 97//7
f 52//14 90//14 85//14 40//14
f 6//2 74//2 75//2 10//2
f 3//5 7//5 80//5 79//5
f 44//14 87//14 76//14 14//14
f 14//16 76//16 77//16 18//16
f 18//20 77//20 78//20 22//20
f 95//21 83//21 84//21 96//21
f 180//19 96//19 84//19 179//19
f 94//17 82//17 83//17 95//17
f 92//8 80//8 81//8 93//8
f 98//7 88//7 82//7 94//7
f 100//3 101//3 74//3 73//3
f 172//1 171//1 79//1 91//1
f 166//1 172//1 91//1 26//1
f 25//3 27//3 101//3 100//3
f 46//7 98//7 94//7 32//7
f 28//8 92//8 93//8 30//8
f 32//17 94//17 95//17 34//17
f 174//19 36//19 96//19 180//19
f 34//21 95//21 96//21 36//21
f 54//7 99//7 97//7 42//7
f 42//7 97//7 98//7 46//7
f 30//7 93//7 99//7 54//7
f 75//14 102//14 108//14 90//14
f 85//14 106//14 107//14 87//14
f 90//14 108//14 106//14 85//14
f 74//2 101//2 102//2 75//2
f 79//5 80//5 92//5 91//5
f 87//14 107//14 103//14 76//14
f 76//16 103//16 104//16 77//16
f 77//20 104//20 105//20 78//20
f 27//2 110//2 111//2 29//2
f 26//5 28//5 119//5 118//5
f 45//14 116//14 112//14 31//14
f 31//16 112//16 113//16 33//16
f 33//20 113//20 114//20 35//20
f 53//14 117//14 115//14 41//14
f 41//14 115//14 116//14 45//14
f 29//14 111//14 117//14 53//14
f 57//7 120//7 126//7 72//7
f 67//7 124//7 125//7 69//7
f 72//7 126//7 124//7 67//7
f 170//1 173//1 118//1 55//1
f 61//3 62//3 110//3 109//3
f 69//7 125//7 121//7 58//7
f 56//8 119//8 120//8 57//8
f 58//17 121//17 122//17 59//17
f 178//19 60//19 123//19 181//19
f 59//21 122//21 123//21 60//21
f 186//19 147//19 153//19 189//19
f 206//1 209//1 152//1 146//1
f 182//19 139//19 151//19 188//19
f 202//1 208//1 150//1 140//1
f 208//1 207//1 149//1 150//1
f 188//19 151//19 148//19 187//19
f 200//19 137//19 147//19 186//19
f 190//1 206//1 146//1 127//1
f 159//13 132//13 145//13 169//13
f 194//12 131//12 144//12 185//12
f 185//23 144//23 215//23 218//23
f 167//13 141//13 142//13 168//13
f 144//23 177//23 214//23 215//23
f 169//13 145//13 141//13 167//13
f 209//1 202//1 140//1 152//1
f 189//19 153//19 139//19 182//19
f 198//22 135//22 137//22 200//22
f 187//19 148//19 138//19 201//19
f 196//18 133//18 135//18 198//18
f 163//15 136//15 138//15 165//15
f 168//13 142//13 134//13 161//13
f 184//12 143//12 133//12 196//12
f 161//11 134//11 136//11 163//11
f 157//10 130//10 132//10 159//10
f 192//9 129//9 131//9 194//9
f 192//6 190//6 127//6 129//6
f 191//4 193//4 130//4 128//4
f 207//1 191//1 128//1 149//1
f 7//10 157//10 159//10 12//10
f 16//11 161//11 163//11 20//11
f 43//13 168//13 161//13 16//13
f 20//15 163//15 165//15 24//15
f 51//13 169//13 167//13 37//13
f 37//13 167//13 168//13 43//13
f 12//13 159//13 169//13 51//13
f 147//19 178//19 181//19 153//19
f 146//1 152//1 173//1 170//1
f 139//19 174//19 180//19 151//19
f 140//1 150//1 172//1 166//1
f 150//1 149//1 171//1 172//1
f 151//19 180//19 179//19 148//19
f 137//19 164//19 178//19 147//19
f 127//1 146//1 170//1 154//1
f 131//12 158//12 177//12 144//12
f 183//24 185//24 218//24 216//24
f 177//25 175//25 210//25 214//25
f 152//1 140//1 166//1 173//1
f 153//19 181//19 174//19 139//19
f 135//22 162//22 164//22 137//22
f 148//19 179//19 165//19 138//19
f 133//18 160//18 162//18 135//18
f 143//12 176//12 160//12 133//12
f 129//9 156//9 158//9 131//9
f 129//6 127//6 154//6 156//6
f 128//4 130//4 157//4 155//4
f 149//1 128//1 155//1 171//1
f 73//1 2//1 191//1 207//1
f 2//4 6//4 193//4 191//4
f 5//6 1//6 190//6 192//6
f 5//9 192//9 194//9 9//9
f 48//12 184//12 196//12 13//12
f 13//18 196//18 198//18 17//18
f 78//19 187//19 201//19 22//19
f 17//22 198//22 200//22 21//22
f 114//19 189//19 182//19 35//19
f 109//1 25//1 202//1 209//1
f 50//12 185//12 183//12 39//12
f 39//12 183//12 184//12 48//12
f 9//12 194//12 185//12 50//12
f 1//1 61//1 206//1 190//1
f 21//19 200//19 186//19 66//19
f 105//19 188//19 187//19 78//19
f 100//1 73//1 207//1 208//1
f 25//1 100//1 208//1 202//1
f 35//19 182//19 188//19 105//19
f 61//1 109//1 209//1 206//1
f 66//19 186//19 189//19 114//19
f 132//13 195//13 205//13 145//13
f 141//13 203//13 204//13 142//13
f 145//13 205//13 203//13 141//13
f 136//15 199//15 201//15 138//15
f 142//13 204//13 197//13 134//13
f 134//11 197//11 199//11 136//11
f 130//10 193//10 195//10 132//10
f 216//12 211//12 213//12 217//12
f 218//12 215//12 211//12 216//12
f 211//12 210//12 212//12 213//12
f 215//12 214//12 210//12 211//12
f 175//25 176//25 212//25 210//25
f 184//24 183//24 216//24 217//24
f 176//26 143//26 213//26 212//26
f 143//26 184//26 217//26 213//26
