# Blender v2.79 (sub 0) OBJ File: 'Gebouw.blend'
# www.blender.org
mtllib floor.mtl
o Floor_Plane.003
v -4.890598 0.253260 2.523750
v 4.930865 0.253260 2.523750
v -4.890598 0.253260 -2.726825
v 4.930865 0.253260 -2.726825
v 1.401421 0.253260 2.523750
v 1.401421 0.253260 -2.726825
v -1.376342 0.253260 -2.726825
v -1.376342 0.253260 2.523750
v -0.672228 0.253260 2.523750
v -0.672228 0.253260 -2.726825
v 0.679836 0.253260 2.523750
v 0.679836 0.253260 -2.726825
v 1.401421 0.253260 -3.101358
v -1.376342 0.253260 -3.101358
v -0.672228 0.253260 -3.101358
v 0.679836 0.253260 -3.101358
v 1.401421 0.253260 3.097504
v 0.679836 0.253260 3.097504
v -1.376342 0.253260 3.074554
v -0.672228 0.253260 3.074554
v 2.335686 0.253260 2.523750
v 2.335686 0.253260 -2.726825
v 1.646665 0.253260 -2.726825
v 1.646665 0.253260 2.523750
v 2.749078 0.253260 2.523750
v 2.749078 0.253260 -2.726825
v 3.426580 0.253260 2.523750
v 3.426580 0.253260 -2.726825
v 3.831579 0.253260 2.523750
v 3.831579 0.253260 -2.726825
v 0.679836 0.253260 -2.726825
v 0.679836 0.253260 2.523750
v 0.679836 0.253260 -3.101358
v -4.890598 0.253260 -0.078509
v 4.930865 0.253260 -0.078508
v 1.401421 0.253260 -0.078508
v -1.376342 0.253260 -0.078508
v -0.672228 0.253260 -0.078508
v 0.679836 0.253260 -0.078508
v 2.335686 0.253260 -0.078508
v 1.646665 0.253260 -0.078508
v 2.749078 0.253260 -0.078508
v 3.426580 0.253260 -0.078508
v 3.831579 0.253260 -0.078508
v 0.679836 0.253260 -0.078508
v -4.890598 0.253260 0.082693
v 4.930865 0.253260 0.082693
v 1.401421 0.253260 0.082693
v -1.376342 0.253260 0.082693
v -0.672228 0.253260 0.082693
v 0.679836 0.253260 0.082693
v 2.335686 0.253260 0.082693
v 1.646665 0.253260 0.082693
v 2.749078 0.253260 0.082693
v 3.426580 0.253260 0.082693
v 3.831579 0.253260 0.082693
v 0.679836 0.253260 0.082693
v -4.890598 0.253260 0.082693
v -4.890598 0.253260 2.523750
v 3.831579 0.253260 2.523750
v 4.930865 0.253260 2.523750
v 4.930865 0.253260 -0.078508
v 4.930865 0.253260 -2.726825
v -1.376342 0.253260 -2.726825
v -4.890598 0.253260 -2.726825
v 1.646665 0.253260 -2.726825
v 1.401421 0.253260 -2.726825
v -1.376342 0.253260 2.523750
v 0.679836 0.253260 2.523750
v 0.679836 0.253260 2.523750
v -0.672228 0.253260 -3.101358
v -1.376342 0.253260 -3.101358
v 0.679836 0.253260 -3.101358
v 1.401421 0.253260 -3.101358
v 0.679836 0.253260 -3.101358
v 0.679836 0.253260 3.097504
v 1.401421 0.253260 3.097504
v 1.401421 0.253260 2.523750
v -1.376342 0.253260 3.074554
v -0.672228 0.253260 3.074554
v -0.672228 0.253260 2.523750
v 1.646665 0.253260 2.523750
v 2.335686 0.253260 2.523750
v 2.749078 0.253260 -2.726825
v 2.335686 0.253260 -2.726825
v 2.749078 0.253260 2.523750
v 3.426580 0.253260 -2.726825
v 3.426580 0.253260 2.523750
v 3.831579 0.253260 -2.726825
v -4.890598 0.253260 -0.078509
v 4.930865 0.253260 0.082693
v -4.934127 0.253260 2.468287
v 4.863123 0.253260 2.504210
v -4.952308 0.253260 -2.692724
v 4.860907 0.253260 -2.718073
v 1.335948 0.253260 2.497591
v 1.331952 0.253260 -2.714788
v -1.444762 0.253260 -2.709815
v -1.437509 0.253260 2.488686
v -0.734873 0.253260 2.491403
v -0.672228 0.323766 -2.726825
v 0.615152 0.253260 2.495698
v 0.679836 0.323766 -2.726825
v 1.332479 0.253260 -3.086595
v -1.443736 0.253260 -3.080652
v -0.740178 0.253260 -3.082554
v 0.611161 0.253260 -3.085397
v 1.337420 0.253260 3.067928
v 0.616816 0.253260 3.065893
v -1.435200 0.253260 3.035739
v -0.732844 0.253260 3.038547
v 2.269403 0.253260 2.499717
v 2.266036 0.253260 -2.715872
v 1.577144 0.253260 -2.715093
v 1.580960 0.253260 2.498183
v 2.682497 0.253260 2.500558
v 2.679364 0.253260 -2.716294
v 3.359573 0.253260 2.501824
v 3.356776 0.253260 -2.716918
v 3.764349 0.253260 2.502519
v 3.761728 0.253260 -2.717258
v 0.679836 0.323766 -2.726825
v 0.615152 0.253260 2.495698
v 0.611161 0.253260 -3.085397
v -4.956749 0.253260 -0.102903
v 4.860605 0.253260 -0.084374
v 1.401421 0.323766 -0.078508
v -1.376342 0.323766 -0.078508
v -0.672228 0.323766 -0.078508
v 0.679836 0.323766 -0.078508
v 2.335686 0.323766 -0.078508
v 1.646665 0.323766 -0.078508
v 2.749078 0.323766 -0.078508
v 3.426580 0.323766 -0.078508
v 3.831579 0.323766 -0.078508
v 0.679836 0.323766 -0.078508
v -4.955488 0.253260 0.055123
v 4.860684 0.253260 0.075944
v 1.401421 0.323766 0.082693
v -1.376342 0.323766 0.082693
v -0.672228 0.323766 0.082693
v 0.679836 0.323766 0.082693
v 2.335686 0.323766 0.082693
v 1.646665 0.323766 0.082693
v 2.749078 0.323766 0.082693
v 3.426580 0.323766 0.082693
v 3.831579 0.323766 0.082693
v 0.679836 0.323766 0.082693
v -4.890598 0.323766 0.082693
v -4.890598 0.323766 2.523750
v 3.831579 0.323766 2.523750
v 4.930865 0.323766 2.523750
v 4.930865 0.323766 -0.078508
v 4.930865 0.323766 -2.726825
v -1.376342 0.323766 -2.726825
v -4.890598 0.323766 -2.726825
v 1.646665 0.323766 -2.726825
v 1.401421 0.323766 -2.726825
v -1.376342 0.323766 2.523750
v 0.679836 0.323766 2.523750
v 0.679836 0.323766 2.523750
v -0.672228 0.323766 -3.101358
v -1.376342 0.323766 -3.101358
v 0.679836 0.323766 -3.101358
v 1.401421 0.323766 -3.101358
v 0.679836 0.323766 -3.101358
v 0.679836 0.323766 3.097504
v 1.401421 0.323766 3.097504
v 1.401421 0.323766 2.523750
v -1.376342 0.323766 3.074554
v -0.672228 0.323766 3.074554
v -0.672228 0.323766 2.523750
v 1.646665 0.323766 2.523750
v 2.335686 0.323766 2.523750
v 2.749078 0.323766 -2.726825
v 2.335686 0.323766 -2.726825
v 2.749078 0.323766 2.523750
v 3.426580 0.323766 -2.726825
v 3.426580 0.323766 2.523750
v 3.831579 0.323766 -2.726825
v -4.890598 0.323766 -0.078509
v 4.930865 0.323766 0.082693
vt 0.111262 0.470089
vt 0.111774 0.061968
vt 0.001121 0.061638
vt 0.000610 0.469758
vt 0.429677 0.470867
vt 0.431480 0.062644
vt 0.356389 0.062699
vt 0.355878 0.470819
vt 0.999900 0.469576
vt 0.999898 0.059799
vt 0.644722 0.059803
vt 0.644724 0.469580
vt 0.572877 0.060050
vt 0.573220 0.469704
vt 0.434656 0.470875
vt 0.432237 0.062653
vt 0.432210 0.000108
vt 0.355757 0.001978
vt 0.432210 0.000108
vt 0.432237 0.062653
vt 0.644785 0.000601
vt 0.572821 0.000442
vt 0.355368 0.878940
vt 0.355290 0.967977
vt 0.427797 0.968128
vt 0.427874 0.879090
vt 0.573563 0.879357
vt 0.573563 0.965331
vt 0.644726 0.965331
vt 0.644726 0.879357
vt 0.331193 0.470745
vt 0.331704 0.062625
vt 0.262348 0.062418
vt 0.261837 0.470538
vt 0.220736 0.062294
vt 0.220225 0.470414
vt 0.152540 0.062090
vt 0.152029 0.470210
vt 0.573391 0.674531
vt 0.435865 0.674986
vt 0.151774 0.674271
vt 0.111007 0.674149
vt 0.219970 0.674474
vt 0.261581 0.674599
vt 0.355623 0.674879
vt 0.330937 0.674806
vt 0.428776 0.674979
vt 0.644725 0.674468
vt 0.999901 0.674465
vt 0.000354 0.673818
vt 0.110751 0.878209
vt 0.000098 0.877878
vt 0.999902 0.879353
vt 0.437075 0.879096
vt 0.435865 0.674986
vt 0.330682 0.878866
vt 0.261326 0.878659
vt 0.219714 0.878534
vt 0.151518 0.878331
vt 0.999902 0.879353
vt 0.999901 0.674465
vt 0.000098 0.877878
vt 0.110751 0.878209
vt 0.001121 0.061638
vt 0.000610 0.469758
vt 0.999898 0.059799
vt 0.644722 0.059803
vt 0.356389 0.062699
vt 0.331704 0.062625
vt 0.644726 0.879357
vt 0.427874 0.879090
vt 0.437075 0.879096
vt 0.644785 0.000601
vt 0.572821 0.000442
vt 0.432210 0.000108
vt 0.431505 0.000098
vt 0.355757 0.001978
vt 0.355290 0.967977
vt 0.427797 0.968128
vt 0.355368 0.878940
vt 0.573563 0.965331
vt 0.644726 0.965331
vt 0.573563 0.879357
vt 0.261326 0.878659
vt 0.330682 0.878866
vt 0.262348 0.062418
vt 0.220736 0.062294
vt 0.219714 0.878534
vt 0.152540 0.062090
vt 0.151518 0.878331
vt 0.111774 0.061968
vt 0.999900 0.469576
vt 0.000354 0.673818
vt 0.111262 0.470089
vt 0.000610 0.469758
vt 0.001121 0.061638
vt 0.111774 0.061968
vt 0.429677 0.470867
vt 0.355878 0.470819
vt 0.356389 0.062699
vt 0.431480 0.062644
vt 0.999900 0.469576
vt 0.644724 0.469580
vt 0.644722 0.059803
vt 0.999898 0.059799
vt 0.573220 0.469704
vt 0.572877 0.060050
vt 0.434656 0.470875
vt 0.432237 0.062653
vt 0.355757 0.001978
vt 0.432210 0.000108
vt 0.432237 0.062653
vt 0.432210 0.000108
vt 0.572821 0.000442
vt 0.644785 0.000601
vt 0.355368 0.878940
vt 0.427874 0.879090
vt 0.427797 0.968128
vt 0.355290 0.967977
vt 0.573563 0.879357
vt 0.644726 0.879357
vt 0.644726 0.965331
vt 0.573563 0.965331
vt 0.331193 0.470745
vt 0.261837 0.470538
vt 0.262348 0.062418
vt 0.331704 0.062625
vt 0.220225 0.470414
vt 0.220736 0.062294
vt 0.152029 0.470210
vt 0.152540 0.062090
vt 0.573391 0.674531
vt 0.435865 0.674986
vt 0.151774 0.674271
vt 0.111007 0.674149
vt 0.219970 0.674474
vt 0.261581 0.674599
vt 0.355623 0.674879
vt 0.330937 0.674806
vt 0.428776 0.674979
vt 0.644725 0.674468
vt 0.999901 0.674465
vt 0.000354 0.673818
vt 0.110751 0.878209
vt 0.000098 0.877878
vt 0.999902 0.879353
vt 0.437075 0.879096
vt 0.435865 0.674986
vt 0.330682 0.878866
vt 0.261326 0.878659
vt 0.219714 0.878534
vt 0.151518 0.878331
vt 0.999901 0.674465
vt 0.999902 0.879353
vt 0.110751 0.878209
vt 0.000098 0.877878
vt 0.000610 0.469758
vt 0.001121 0.061638
vt 0.644722 0.059803
vt 0.999898 0.059799
vt 0.331704 0.062625
vt 0.356389 0.062699
vt 0.644726 0.879357
vt 0.437075 0.879096
vt 0.427874 0.879090
vt 0.572821 0.000442
vt 0.644785 0.000601
vt 0.432210 0.000108
vt 0.355757 0.001978
vt 0.431505 0.000098
vt 0.427797 0.968128
vt 0.355290 0.967977
vt 0.355368 0.878940
vt 0.644726 0.965331
vt 0.573563 0.965331
vt 0.573563 0.879357
vt 0.330682 0.878866
vt 0.261326 0.878659
vt 0.220736 0.062294
vt 0.262348 0.062418
vt 0.219714 0.878534
vt 0.152540 0.062090
vt 0.151518 0.878331
vt 0.111774 0.061968
vt 0.999900 0.469576
vt 0.000354 0.673818
vn 0.0000 -1.0000 0.0000
vn 0.0000 0.0000 1.0000
vn 0.0000 1.0000 0.0000
vn -0.7938 0.6082 0.0035
vn -0.0007 -0.2771 0.9608
vn 0.7091 -0.7051 0.0000
vn -0.0023 -0.3389 -0.9408
vn -0.0006 -0.1656 -0.9862
vn -0.0025 -0.5389 0.8423
vn -0.0013 -0.2686 -0.9632
vn -0.0010 -0.2384 -0.9712
vn -0.0008 -0.2121 -0.9772
vn 0.7137 -0.7004 0.0005
vn -0.7204 0.6936 -0.0010
vn -0.0013 -0.3971 0.9178
vn -0.7414 0.6710 0.0011
vn 0.7368 -0.6761 -0.0009
vn -0.0018 -0.4675 0.8840
vn -0.7619 0.6477 0.0016
vn 0.7532 -0.6578 -0.0014
vn -0.0011 -0.3309 0.9437
vn -0.0005 -0.1501 -0.9887
vn -0.0006 -0.1583 -0.9874
vn -0.0011 -0.3434 0.9392
vn -0.0010 -0.3167 0.9485
vn -0.0005 -0.1430 -0.9897
vn -0.0009 -0.3040 0.9527
vn -0.0004 -0.1364 -0.9907
vn -0.0008 -0.2919 0.9564
vn -0.0004 -0.1285 -0.9917
vn -0.0015 -0.3926 0.9197
vn -0.7408 0.6717 -0.0006
vn 0.7085 -0.7057 -0.0002
vn -0.7331 0.6802 0.0029
vn 0.7149 -0.6992 -0.0004
usemtl Material.002
s off
f 44/1/1 89/2/1 63/3/1 62/4/1
f 39/5/1 12/6/1 67/7/1 36/8/1
f 90/9/1 65/10/1 64/11/1 37/12/1
f 37/12/1 64/11/1 10/13/1 38/14/1
f 45/15/2 31/16/2 12/6/2 39/5/2
f 12/6/1 75/17/1 74/18/1 67/7/1
f 31/16/2 73/19/2 75/17/2 12/20/2
f 64/11/1 72/21/1 71/22/1 10/13/1
f 78/23/1 77/24/1 76/25/1 70/26/1
f 81/27/1 80/28/1 79/29/1 68/30/1
f 41/31/1 66/32/1 85/33/1 40/34/1
f 36/8/1 67/7/1 66/32/1 41/31/1
f 40/34/1 85/33/1 84/35/1 42/36/1
f 42/36/1 84/35/1 87/37/1 43/38/1
f 43/38/1 87/37/1 89/2/1 44/1/1
f 10/13/1 71/22/1 73/19/1 31/16/1
f 38/14/1 10/13/1 31/16/1 45/15/1
f 50/39/1 38/14/1 45/15/1 57/40/1
f 55/41/1 43/38/1 44/1/1 56/42/1
f 54/43/1 42/36/1 43/38/1 55/41/1
f 52/44/1 40/34/1 42/36/1 54/43/1
f 48/45/1 36/8/1 41/31/1 53/46/1
f 53/46/1 41/31/1 40/34/1 52/44/1
f 57/40/2 45/15/2 39/5/2 51/47/2
f 49/48/1 37/12/1 38/14/1 50/39/1
f 58/49/1 90/9/1 37/12/1 49/48/1
f 51/47/1 39/5/1 36/8/1 48/45/1
f 56/42/1 44/1/1 62/4/1 91/50/1
f 60/51/1 56/42/1 91/50/1 61/52/1
f 70/26/1 51/47/1 48/45/1 78/23/1
f 59/53/1 58/49/1 49/48/1 68/30/1
f 68/30/1 49/48/1 50/39/1 81/27/1
f 69/54/2 57/40/2 51/55/2 70/26/2
f 82/56/1 53/46/1 52/44/1 83/57/1
f 78/23/1 48/45/1 53/46/1 82/56/1
f 83/57/1 52/44/1 54/43/1 86/58/1
f 86/58/1 54/43/1 55/41/1 88/59/1
f 88/59/1 55/41/1 56/42/1 60/51/1
f 81/27/1 50/39/1 57/40/1 69/54/1
f 59/53/2 1/60/2 46/61/2 58/49/2
f 61/52/2 2/62/2 29/63/2 60/51/2
f 63/3/2 4/64/2 35/65/2 62/4/2
f 65/10/2 3/66/2 7/67/2 64/11/2
f 67/7/2 6/68/2 23/69/2 66/32/2
f 68/30/2 8/70/2 1/60/2 59/53/2
f 70/26/2 11/71/2 32/72/2 69/54/2
f 72/21/2 14/73/2 15/74/2 71/22/2
f 71/22/2 15/74/2 33/75/2 73/19/2
f 75/17/2 16/76/2 13/77/2 74/18/2
f 74/18/2 13/77/2 6/68/2 67/7/2
f 64/11/2 7/67/2 14/73/2 72/21/2
f 77/24/2 17/78/2 18/79/2 76/25/2
f 76/25/2 18/79/2 11/71/2 70/26/2
f 78/23/2 5/80/2 17/78/2 77/24/2
f 80/28/2 20/81/2 19/82/2 79/29/2
f 79/29/2 19/82/2 8/70/2 68/30/2
f 81/27/2 9/83/2 20/81/2 80/28/2
f 83/57/2 21/84/2 24/85/2 82/56/2
f 85/33/2 22/86/2 26/87/2 84/35/2
f 66/32/2 23/69/2 22/86/2 85/33/2
f 82/56/2 24/85/2 5/80/2 78/23/2
f 86/58/2 25/88/2 21/84/2 83/57/2
f 84/35/2 26/87/2 28/89/2 87/37/2
f 88/59/2 27/90/2 25/88/2 86/58/2
f 87/37/2 28/89/2 30/91/2 89/2/2
f 60/51/2 29/63/2 27/90/2 88/59/2
f 89/2/2 30/91/2 4/64/2 63/3/2
f 69/54/2 32/72/2 9/83/2 81/27/2
f 73/19/2 33/75/2 16/76/2 75/17/2
f 90/9/2 34/92/2 3/66/2 65/10/2
f 62/4/2 35/65/2 47/93/2 91/50/2
f 58/49/2 46/61/2 34/92/2 90/9/2
f 91/50/2 47/93/2 2/62/2 61/52/2
f 135/94/3 153/95/3 154/96/3 180/97/3
f 130/98/3 127/99/3 158/100/3 103/101/3
f 181/102/3 128/103/3 155/104/3 156/105/3
f 128/103/3 129/106/3 101/107/3 155/104/3
f 136/108/2 130/98/2 103/101/2 122/109/2
f 103/101/3 158/100/3 165/110/3 166/111/3
f 122/109/2 103/112/2 166/111/2 164/113/2
f 155/104/3 101/107/3 162/114/3 163/115/3
f 169/116/3 161/117/3 167/118/3 168/119/3
f 172/120/3 159/121/3 170/122/3 171/123/3
f 132/124/3 131/125/3 176/126/3 157/127/3
f 127/99/3 132/124/3 157/127/3 158/100/3
f 131/125/3 133/128/3 175/129/3 176/126/3
f 133/128/3 134/130/3 178/131/3 175/129/3
f 134/130/3 135/94/3 180/97/3 178/131/3
f 101/107/3 122/109/3 164/113/3 162/114/3
f 129/106/3 136/108/3 122/109/3 101/107/3
f 141/132/3 148/133/3 136/108/3 129/106/3
f 146/134/3 147/135/3 135/94/3 134/130/3
f 145/136/3 146/134/3 134/130/3 133/128/3
f 143/137/3 145/136/3 133/128/3 131/125/3
f 139/138/3 144/139/3 132/124/3 127/99/3
f 144/139/3 143/137/3 131/125/3 132/124/3
f 148/133/2 142/140/2 130/98/2 136/108/2
f 140/141/3 141/132/3 129/106/3 128/103/3
f 149/142/3 140/141/3 128/103/3 181/102/3
f 142/140/3 139/138/3 127/99/3 130/98/3
f 147/135/3 182/143/3 153/95/3 135/94/3
f 151/144/3 152/145/3 182/143/3 147/135/3
f 161/117/3 169/116/3 139/138/3 142/140/3
f 150/146/3 159/121/3 140/141/3 149/142/3
f 159/121/3 172/120/3 141/132/3 140/141/3
f 160/147/2 161/117/2 142/148/2 148/133/2
f 173/149/3 174/150/3 143/137/3 144/139/3
f 169/116/3 173/149/3 144/139/3 139/138/3
f 174/150/3 177/151/3 145/136/3 143/137/3
f 177/151/3 179/152/3 146/134/3 145/136/3
f 179/152/3 151/144/3 147/135/3 146/134/3
f 172/120/3 160/147/3 148/133/3 141/132/3
f 150/146/4 149/142/4 137/153/4 92/154/4
f 152/145/5 151/144/5 120/155/5 93/156/5
f 154/96/6 153/95/6 126/157/6 95/158/6
f 156/105/7 155/104/7 98/159/7 94/160/7
f 158/100/8 157/127/8 114/161/8 97/162/8
f 159/121/9 150/146/9 92/154/9 99/163/9
f 161/117/2 160/147/2 123/164/2 102/165/2
f 163/115/10 162/114/10 106/166/10 105/167/10
f 162/114/11 164/113/11 124/168/11 106/166/11
f 166/111/12 165/110/12 104/169/12 107/170/12
f 165/110/13 158/100/13 97/162/13 104/169/13
f 155/104/14 163/115/14 105/167/14 98/159/14
f 168/119/15 167/118/15 109/171/15 108/172/15
f 167/118/16 161/117/16 102/165/16 109/171/16
f 169/116/17 168/119/17 108/172/17 96/173/17
f 171/123/18 170/122/18 110/174/18 111/175/18
f 170/122/19 159/121/19 99/163/19 110/174/19
f 172/120/20 171/123/20 111/175/20 100/176/20
f 174/150/21 173/149/21 115/177/21 112/178/21
f 176/126/22 175/129/22 117/179/22 113/180/22
f 157/127/23 176/126/23 113/180/23 114/161/23
f 173/149/24 169/116/24 96/173/24 115/177/24
f 177/151/25 174/150/25 112/178/25 116/181/25
f 175/129/26 178/131/26 119/182/26 117/179/26
f 179/152/27 177/151/27 116/181/27 118/183/27
f 178/131/28 180/97/28 121/184/28 119/182/28
f 151/144/29 179/152/29 118/183/29 120/155/29
f 180/97/30 154/96/30 95/158/30 121/184/30
f 160/147/31 172/120/31 100/176/31 123/164/31
f 164/113/2 166/111/2 107/170/2 124/168/2
f 181/102/32 156/105/32 94/160/32 125/185/32
f 153/95/33 182/143/33 138/186/33 126/157/33
f 149/142/34 181/102/34 125/185/34 137/153/34
f 182/143/35 152/145/35 93/156/35 138/186/35
f 1/60/1 92/154/1 137/153/1 46/61/1
f 2/62/3 93/156/3 120/155/3 29/63/3
f 4/64/3 95/158/3 126/157/3 35/65/3
f 3/66/3 94/160/3 98/159/3 7/67/3
f 6/68/3 97/162/3 114/161/3 23/69/3
f 8/70/3 99/163/3 92/154/3 1/60/3
f 11/71/2 102/165/2 123/164/2 32/72/2
f 14/73/3 105/167/3 106/166/3 15/74/3
f 15/74/3 106/166/3 124/168/3 33/75/3
f 16/76/3 107/170/3 104/169/3 13/77/3
f 13/77/3 104/169/3 97/162/3 6/68/3
f 7/67/1 98/159/1 105/167/1 14/73/1
f 17/78/3 108/172/3 109/171/3 18/79/3
f 18/79/1 109/171/1 102/165/1 11/71/1
f 5/80/3 96/173/3 108/172/3 17/78/3
f 20/81/3 111/175/3 110/174/3 19/82/3
f 19/82/1 110/174/1 99/163/1 8/70/1
f 9/83/3 100/176/3 111/175/3 20/81/3
f 21/84/3 112/178/3 115/177/3 24/85/3
f 22/86/3 113/180/3 117/179/3 26/87/3
f 23/69/3 114/161/3 113/180/3 22/86/3
f 24/85/3 115/177/3 96/173/3 5/80/3
f 25/88/3 116/181/3 112/178/3 21/84/3
f 26/87/3 117/179/3 119/182/3 28/89/3
f 27/90/3 118/183/3 116/181/3 25/88/3
f 28/89/3 119/182/3 121/184/3 30/91/3
f 29/63/3 120/155/3 118/183/3 27/90/3
f 30/91/3 121/184/3 95/158/3 4/64/3
f 32/72/3 123/164/3 100/176/3 9/83/3
f 33/75/2 124/168/2 107/170/2 16/76/2
f 34/92/1 125/185/1 94/160/1 3/66/1
f 35/65/3 126/157/3 138/186/3 47/93/3
f 46/61/1 137/153/1 125/185/1 34/92/1
f 47/93/3 138/186/3 93/156/3 2/62/3
