# Blender v2.79 (sub 0) OBJ File: ''
# www.blender.org
mtllib pilar.mtl
o Cube
v 1.000000 0.042812 -1.000000
v 1.000000 0.042812 1.000000
v -1.000000 0.042812 1.000000
v -1.000000 0.042812 -1.000000
v 0.653905 0.141366 -0.653904
v 0.653904 0.141366 0.653905
v -0.653905 0.141366 0.653904
v -0.653904 0.141366 -0.653904
v 0.653905 0.335745 -0.653904
v 0.653904 0.335745 0.653905
v -0.653904 0.335745 -0.653904
v -0.653905 0.335745 0.653904
v 0.502880 0.335745 -0.502880
v 0.502880 0.335745 0.502881
v -0.502880 0.335745 -0.502880
v -0.502880 0.335745 0.502880
v 0.502880 1.603615 -0.502880
v 0.502880 1.603615 0.502881
v -0.502880 1.603615 -0.502880
v -0.502880 1.603615 0.502880
v 0.704549 1.688653 -0.704549
v 0.704548 1.688653 0.704549
v -0.704549 1.688653 -0.704549
v -0.704549 1.688653 0.704549
v 1.023065 1.816681 -1.023064
v 1.023064 1.816681 1.023065
v -1.023065 1.816681 -1.023065
v -1.023065 1.816681 1.023064
v 1.023065 1.963011 -1.023064
v 1.023064 1.963011 1.023065
v -1.023065 1.963011 -1.023065
v -1.023065 1.963011 1.023064
vn 0.0000 -1.0000 -0.0000
vn 1.0000 0.0000 0.0000
vn 0.2739 0.9618 0.0000
vn -0.0000 0.9618 0.2739
vn -0.2739 0.9618 -0.0000
vn 0.0000 0.9618 -0.2739
vn 0.0000 1.0000 0.0000
vn -1.0000 0.0000 -0.0000
vn 0.0000 0.0000 -1.0000
vn -0.0000 0.0000 1.0000
vn -0.0000 -0.9214 0.3885
vn -0.3730 -0.9279 -0.0000
vn 0.3885 -0.9214 0.0000
vn -0.3885 -0.9214 0.0000
vn 0.0000 -0.9214 -0.3885
vn 0.0000 -0.9279 -0.3730
vn -0.0000 -0.9279 0.3730
vn 0.3730 -0.9279 0.0000
usemtl Material
s off
f 1//1 2//1 3//1 4//1
f 6//2 5//2 9//2 10//2
f 1//3 5//3 6//3 2//3
f 2//4 6//4 7//4 3//4
f 3//5 7//5 8//5 4//5
f 5//6 1//6 4//6 8//6
f 11//7 12//7 16//7 15//7
f 8//8 7//8 12//8 11//8
f 5//9 8//9 11//9 9//9
f 7//10 6//10 10//10 12//10
f 16//10 14//10 18//10 20//10
f 9//7 11//7 15//7 13//7
f 12//7 10//7 14//7 16//7
f 10//7 9//7 13//7 14//7
f 20//11 18//11 22//11 24//11
f 14//2 13//2 17//2 18//2
f 15//8 16//8 20//8 19//8
f 13//9 15//9 19//9 17//9
f 23//12 24//12 28//12 27//12
f 18//13 17//13 21//13 22//13
f 19//14 20//14 24//14 23//14
f 17//15 19//15 23//15 21//15
f 28//10 26//10 30//10 32//10
f 21//16 23//16 27//16 25//16
f 24//17 22//17 26//17 28//17
f 22//18 21//18 25//18 26//18
f 29//7 31//7 32//7 30//7
f 26//2 25//2 29//2 30//2
f 27//8 28//8 32//8 31//8
f 25//9 27//9 31//9 29//9
